<?xml version="1.0"?><svg xmlns="http://www.w3.org/2000/svg" viewBox="0 0 1179.12 1198.2" xmlns:c2pa="http://c2pa.org/manifest"><metadata><c2pa:manifest>AAAWgmp1bWIAAAAeanVtZGMycGEAEQAQgAAAqgA4m3EDYzJwYQAAABZcanVtYgAAAEdqdW1kYzJtYQARABCAAACqADibcQN1cm46YzJwYTpmNmY0ZmVhZi1iNzlhLTQ2NTEtYTRkNC1lMThhZjA3NjlmZDAAAAADl2p1bWIAAAApanVtZGMyYXMAEQAQgAAAqgA4m3EDYzJwYS5hc3NlcnRpb25zAAAAALxqdW1iAAAARGp1bWRjYm9yABEAEIAAAKoAOJtxE2MycGEuaW5ncmVkaWVudC52MwAAAAAYYzJzaAOvd9PiTO345ZHRmw9DOzIAAABwY2JvcqNpZGM6Zm9ybWF0bWltYWdlL3N2Zyt4bWxqaW5zdGFuY2VJRHgseG1wOmlpZDpkZTU4ZjE2ZS1hZWUwLTRkYmMtYmFlYS1mN2Q3MmFiNzU2YmRscmVsYXRpb25zaGlwaHBhcmVudE9mAAAB4mp1bWIAAABBanVtZGNib3IAEQAQgAAAqgA4m3ETYzJwYS5hY3Rpb25zLnYyAAAAABhjMnNornkNQIB58TXAlef7IJr+QwAAAZljYm9yomdhY3Rpb25zgqJmYWN0aW9ua2MycGEub3BlbmVkanBhcmFtZXRlcnOha2luZ3JlZGllbnRzgaJjdXJseC1zZWxmI2p1bWJmPWMycGEuYXNzZXJ0aW9ucy9jMnBhLmluZ3JlZGllbnQudjNkaGFzaFgg7HvJDKR71jo2R+59EEmxEY/KbruPjyTOZaEplkpkccOkZmFjdGlvbngdY29tLmFudGhyb3BpYy5jbGF1ZGUucHJvdmlkZWRqcGFyYW1ldGVyc6F4H2NvbS5hbnRocm9waWMub3JpZ2luLWNvbmZpZGVuY2VndW5rbm93bmtkZXNjcmlwdGlvbnhmQ2xhdWRlIHByb3ZpZGVkIHRoaXMgZmlsZSBhdCB0aGUgcmVxdWVzdCBvZiBhIHVzZXIgYW5kIG1heSBoYXZlIGNyZWF0ZWQgb3IgbW9kaWZpZWQgdGhlIGZpbGUgY29udGVudHMubXNvZnR3YXJlQWdlbnShZG5hbWVmQ2xhdWRlcmFsbEFjdGlvbnNJbmNsdWRlZPUAAADIanVtYgAAAEBqdW1kY2JvcgARABCAAACqADibcRNjMnBhLmhhc2guZGF0YQAAAAAYYzJzaCAJfbUjVixMui4IUSR9354AAACAY2JvcqVjYWxnZnNoYTI1NmNwYWRNAAAAAAAAAAAAAAAAAGRoYXNoWCDwzaS0RiBfB/o7k3vJfiLoT1ZWcuef5zPdkeWxTu3/WmRuYW1lbmp1bWJmIG1hbmlmZXN0amV4Y2x1c2lvbnOBomVzdGFydBiZZmxlbmd0aBkeBAAAAj5qdW1iAAAAJ2p1bWRjMmNsABEAEIAAAKoAOJtxA2MycGEuY2xhaW0udjIAAAACD2Nib3KlY2FsZ2ZzaGEyNTZpc2lnbmF0dXJleE1zZWxmI2p1bWJmPS9jMnBhL3VybjpjMnBhOmY2ZjRmZWFmLWI3OWEtNDY1MS1hNGQ0LWUxOGFmMDc2OWZkMC9jMnBhLnNpZ25hdHVyZWppbnN0YW5jZUlEeCx4bXA6aWlkOmE4MjIzOWIxLWQzODQtNDI3ZC05MWU2LTgzZmM0ZDYyODEyN3JjcmVhdGVkX2Fzc2VydGlvbnODomN1cmx4LXNlbGYjanVtYmY9YzJwYS5hc3NlcnRpb25zL2MycGEuaW5ncmVkaWVudC52M2RoYXNoWCDse8kMpHvWOjZH7n0QSbERj8puu4+PJM5loSmWSmRxw6JjdXJseCpzZWxmI2p1bWJmPWMycGEuYXNzZXJ0aW9ucy9jMnBhLmFjdGlvbnMudjJkaGFzaFggpz5czTEgm27t5MGEEjM3QZo/inXAoUFNZn0rtyYhG8KiY3VybHgpc2VsZiNqdW1iZj1jMnBhLmFzc2VydGlvbnMvYzJwYS5oYXNoLmRhdGFkaGFzaFggtDLGTiBR9SVUZW2ywL8K3AkSlaZIrJwhYSTkJhOmpup0Y2xhaW1fZ2VuZXJhdG9yX2luZm+jZG5hbWVvQW50aHJvcGljIEZpbGVzZ3ZlcnNpb25lMS4wLjBrc3BlY1ZlcnNpb25lMi40LjAAABA4anVtYgAAAChqdW1kYzJjcwARABCAAACqADibcQNjMnBhLnNpZ25hdHVyZQAAABAIY2JvctKEWQISogEmGCFZAgowggIGMIIBjaADAgECAhRA5aAK7sI50L64g/oGQgU9Z1UTADAKBggqhkjOPQQDAzBJMRcwFQYDVQQKEw5BbnRocm9waWMsIFBCQzEuMCwGA1UEAxMlQW50aHJvcGljIENvbnRlbnQgQ3JlZGVudGlhbHMgUm9vdCBDQTAeFw0yNjA4MDcxODQzNTZaFw0yODA4MDYxOTQzNTZaMEQxFzAVBgNVBAoTDkFudGhyb3BpYywgUEJDMSkwJwYDVQQDEyBBbnRocm9waWMgQ2xhdWRlIENvbnRlbnQgU2lnbmluZzBZMBMGByqGSM49AgEGCCqGSM49AwEHA0IABJh6CmvLUBgFFNU0vUKlOVtE6djd17L5SuwX0LemFisBM3dkd/3cyjxFA3Qo5S46fX0/ihY0VZ7mfb9KF703t5OjWDBWMA4GA1UdDwEB/wQEAwIHgDAVBgNVHSUEDjAMBgorBgEEAYPoXgIBMAwGA1UdEwEB/wQCMAAwHwYDVR0jBBgwFoAUzlHiBIFOZFsj+OPEz5o+nMHXXMIwCgYIKoZIzj0EAwMDZwAwZAIwMXMdFJ4BetLLVY7ORuE9noqbbAZOZn/aArXyTwFAZfKrPzxF2vPoJNf1+UCdg1XGAjBwX1zd9WGqYkqmL5SFqw1QySjr1zJfpJM9+1rdDwSPLMOPOjKuiXjoU/pUUeG9RwmhY3BhZFkNngAAAAAAAAAAAAAAAAAAAAAAAAAAAAAAAAAAAAAAAAAAAAAAAAAAAAAAAAAAAAAAAAAAAAAAAAAAAAAAAAAAAAAAAAAAAAAAAAAAAAAAAAAAAAAAAAAAAAAAAAAAAAAAAAAAAAAAAAAAAAAAAAAAAAAAAAAAAAAAAAAAAAAAAAAAAAAAAAAAAAAAAAAAAAAAAAAAAAAAAAAAAAAAAAAAAAAAAAAAAAAAAAAAAAAAAAAAAAAAAAAAAAAAAAAAAAAAAAAAAAAAAAAAAAAAAAAAAAAAAAAAAAAAAAAAAAAAAAAAAAAAAAAAAAAAAAAAAAAAAAAAAAAAAAAAAAAAAAAAAAAAAAAAAAAAAAAAAAAAAAAAAAAAAAAAAAAAAAAAAAAAAAAAAAAAAAAAAAAAAAAAAAAAAAAAAAAAAAAAAAAAAAAAAAAAAAAAAAAAAAAAAAAAAAAAAAAAAAAAAAAAAAAAAAAAAAAAAAAAAAAAAAAAAAAAAAAAAAAAAAAAAAAAAAAAAAAAAAAAAAAAAAAAAAAAAAAAAAAAAAAAAAAAAAAAAAAAAAAAAAAAAAAAAAAAAAAAAAAAAAAAAAAAAAAAAAAAAAAAAAAAAAAAAAAAAAAAAAAAAAAAAAAAAAAAAAAAAAAAAAAAAAAAAAAAAAAAAAAAAAAAAAAAAAAAAAAAAAAAAAAAAAAAAAAAAAAAAAAAAAAAAAAAAAAAAAAAAAAAAAAAAAAAAAAAAAAAAAAAAAAAAAAAAAAAAAAAAAAAAAAAAAAAAAAAAAAAAAAAAAAAAAAAAAAAAAAAAAAAAAAAAAAAAAAAAAAAAAAAAAAAAAAAAAAAAAAAAAAAAAAAAAAAAAAAAAAAAAAAAAAAAAAAAAAAAAAAAAAAAAAAAAAAAAAAAAAAAAAAAAAAAAAAAAAAAAAAAAAAAAAAAAAAAAAAAAAAAAAAAAAAAAAAAAAAAAAAAAAAAAAAAAAAAAAAAAAAAAAAAAAAAAAAAAAAAAAAAAAAAAAAAAAAAAAAAAAAAAAAAAAAAAAAAAAAAAAAAAAAAAAAAAAAAAAAAAAAAAAAAAAAAAAAAAAAAAAAAAAAAAAAAAAAAAAAAAAAAAAAAAAAAAAAAAAAAAAAAAAAAAAAAAAAAAAAAAAAAAAAAAAAAAAAAAAAAAAAAAAAAAAAAAAAAAAAAAAAAAAAAAAAAAAAAAAAAAAAAAAAAAAAAAAAAAAAAAAAAAAAAAAAAAAAAAAAAAAAAAAAAAAAAAAAAAAAAAAAAAAAAAAAAAAAAAAAAAAAAAAAAAAAAAAAAAAAAAAAAAAAAAAAAAAAAAAAAAAAAAAAAAAAAAAAAAAAAAAAAAAAAAAAAAAAAAAAAAAAAAAAAAAAAAAAAAAAAAAAAAAAAAAAAAAAAAAAAAAAAAAAAAAAAAAAAAAAAAAAAAAAAAAAAAAAAAAAAAAAAAAAAAAAAAAAAAAAAAAAAAAAAAAAAAAAAAAAAAAAAAAAAAAAAAAAAAAAAAAAAAAAAAAAAAAAAAAAAAAAAAAAAAAAAAAAAAAAAAAAAAAAAAAAAAAAAAAAAAAAAAAAAAAAAAAAAAAAAAAAAAAAAAAAAAAAAAAAAAAAAAAAAAAAAAAAAAAAAAAAAAAAAAAAAAAAAAAAAAAAAAAAAAAAAAAAAAAAAAAAAAAAAAAAAAAAAAAAAAAAAAAAAAAAAAAAAAAAAAAAAAAAAAAAAAAAAAAAAAAAAAAAAAAAAAAAAAAAAAAAAAAAAAAAAAAAAAAAAAAAAAAAAAAAAAAAAAAAAAAAAAAAAAAAAAAAAAAAAAAAAAAAAAAAAAAAAAAAAAAAAAAAAAAAAAAAAAAAAAAAAAAAAAAAAAAAAAAAAAAAAAAAAAAAAAAAAAAAAAAAAAAAAAAAAAAAAAAAAAAAAAAAAAAAAAAAAAAAAAAAAAAAAAAAAAAAAAAAAAAAAAAAAAAAAAAAAAAAAAAAAAAAAAAAAAAAAAAAAAAAAAAAAAAAAAAAAAAAAAAAAAAAAAAAAAAAAAAAAAAAAAAAAAAAAAAAAAAAAAAAAAAAAAAAAAAAAAAAAAAAAAAAAAAAAAAAAAAAAAAAAAAAAAAAAAAAAAAAAAAAAAAAAAAAAAAAAAAAAAAAAAAAAAAAAAAAAAAAAAAAAAAAAAAAAAAAAAAAAAAAAAAAAAAAAAAAAAAAAAAAAAAAAAAAAAAAAAAAAAAAAAAAAAAAAAAAAAAAAAAAAAAAAAAAAAAAAAAAAAAAAAAAAAAAAAAAAAAAAAAAAAAAAAAAAAAAAAAAAAAAAAAAAAAAAAAAAAAAAAAAAAAAAAAAAAAAAAAAAAAAAAAAAAAAAAAAAAAAAAAAAAAAAAAAAAAAAAAAAAAAAAAAAAAAAAAAAAAAAAAAAAAAAAAAAAAAAAAAAAAAAAAAAAAAAAAAAAAAAAAAAAAAAAAAAAAAAAAAAAAAAAAAAAAAAAAAAAAAAAAAAAAAAAAAAAAAAAAAAAAAAAAAAAAAAAAAAAAAAAAAAAAAAAAAAAAAAAAAAAAAAAAAAAAAAAAAAAAAAAAAAAAAAAAAAAAAAAAAAAAAAAAAAAAAAAAAAAAAAAAAAAAAAAAAAAAAAAAAAAAAAAAAAAAAAAAAAAAAAAAAAAAAAAAAAAAAAAAAAAAAAAAAAAAAAAAAAAAAAAAAAAAAAAAAAAAAAAAAAAAAAAAAAAAAAAAAAAAAAAAAAAAAAAAAAAAAAAAAAAAAAAAAAAAAAAAAAAAAAAAAAAAAAAAAAAAAAAAAAAAAAAAAAAAAAAAAAAAAAAAAAAAAAAAAAAAAAAAAAAAAAAAAAAAAAAAAAAAAAAAAAAAAAAAAAAAAAAAAAAAAAAAAAAAAAAAAAAAAAAAAAAAAAAAAAAAAAAAAAAAAAAAAAAAAAAAAAAAAAAAAAAAAAAAAAAAAAAAAAAAAAAAAAAAAAAAAAAAAAAAAAAAAAAAAAAAAAAAAAAAAAAAAAAAAAAAAAAAAAAAAAAAAAAAAAAAAAAAAAAAAAAAAAAAAAAAAAAAAAAAAAAAAAAAAAAAAAAAAAAAAAAAAAAAAAAAAAAAAAAAAAAAAAAAAAAAAAAAAAAAAAAAAAAAAAAAAAAAAAAAAAAAAAAAAAAAAAAAAAAAAAAAAAAAAAAAAAAAAAAAAAAAAAAAAAAAAAAAAAAAAAAAAAAAAAAAAAAAAAAAAAAAAAAAAAAAAAAAAAAAAAAAAAAAAAAAAAAAAAAAAAAAAAAAAAAAAAAAAAAAAAAAAAAAAAAAAAAAAAAAAAAAAAAAAAAAAAAAAAAAAAAAAAAAAAAAAAAAAAAAAAAAAAAAAAAAAAAAAAAAAAAAAAAAAAAAAAAAAAAAAAAAAAAAAAAAAAAAAAAAAAAAAAAAAAAAAAAAAAAAAAAAAAAAAAAAAAAAAAAAAAAAAAAAAAAAAAAAAAAAAAAAAAAAAAAAAAAAAAAAAAAAAAAAAAAAAAAAAAAAAAAAAAAAAAAAAAAAAAAAAAAAAAAAAAAAAAAAAAAAAAAAAAAAAAAAAAAAAAAAAAAAAAAAAAAAAAAAAAAAAAAAAAAAAAAAAAAAAAAAAAAAAAAAAAAAAAAAAAAAAAAAAAAAAAAAAAAAAAAAAAAAAAAAAAAAAAAAAAAAAAAAAAAAAAAAAAAAAAAAAAAAAAAAAAAAAAAAAAAAAAAAAAAAAAAAAAAAAAAAAAAAAAAAAAAAAAAAAAAAAAAAAAAAAAAAAAAAAAAAAAAAAAAAAAAAAAAAAAAAAAAAAAAAAAAAAAAAAAAAAAAAAAAAAAAAAAAAAAAAAAAAAAAAAAAAAAAAAAAAAAAAAAAAAAAAAAAAAAAAAAAAAAAAAAAAAAAAAAAAAAAAAAAAAAAAAAAAAAAAAAAAAAAAAAAAAAAAAAAAAAAAAAAAAAAAAAAAAAAAAAAAAAAAAAAAAAAAAAAAAAAAAAAAAAAAAAAAAAAAAAAAAAAAAAAAAAAAAAAAAAAAAAAAAAAAAAAAAAAAAAAAAAAAAAAAAAAAAAAAAAAAAAAAAAAAAAAAAAAAAAAAAAAAAAAAAAAAAAAAAAAAAAAAAAAAAAAAAAAAAAAAAAAAAAAAAAAAAAAAAAAAAAAAAAAAAAAAAAAAAAAAAAAAAAAAAAAAAAAAAAAAAAAAAAAAAAAAAAAAAAAAAAAAAAAAAAAAAAAAAAAAAAAAAAAAAAAAAAAAAAAAAAAAAAAAAAAAAAAAAAAAAAAAAAAAAAAAAAAAAAAAAAAAAAAAAAAAAAAAAAAAAAAAAAAAAAAAAAAAAAAAAAAAAAAAAAAAAAAAAAAAAAAAAAAAAAAAAAAAAAAAAAAAAAAAAAAAAAAAAAAAAAAAAAAAAAAAAAAAAAAAAAAAAAAAAAAAAAAAAAAAAAAAAAAAAAAAAAAAAAAAAAAAAAAAAAAAAAAAAAAAAAAAAAAAAAAAAAAAAAAAAAAAAAAAAAAAAAAAAAAAAAAAAAAAAAAAAAAAAAAAAAAAAAAAAAAAAAAAAAAAAAAAAAAAAAAAAAAAAAAAAAAAAAAAAAAAAAAAAAAAAAAAAAAAAAAAAAAAAAAAAAAAAAAAAAAAAAAAAAAAAAAAAAAAAAAAAAAAAAAAAAAAAAAAAAAAAAAAAAAAAAAAAAAAAAAAAAAAAAAAAAAAAAAAAAAAAAAAAAAAAAAAAAAAAAPZYQFUi2Wo7hMFI/8mn83LVF65BFMNlohPYsHKA/MkWi4iuDTqp9YjCCPPZsXZCeIdSI3N3IYl6+BqmZoXxZStY2Qo=</c2pa:manifest></metadata>
<title>KirkaDay_Icon Metallic</title>
<defs><linearGradient id="g0" gradientUnits="userSpaceOnUse" x1="220.475" y1="149.775" x2="782.065" y2="591.195"><stop offset="0" stop-color="#5E0811"></stop><stop offset="0.35" stop-color="#A00C20"></stop><stop offset="0.55" stop-color="#D0182C"></stop><stop offset="0.8" stop-color="#8E0B1C"></stop><stop offset="1" stop-color="#5A0710"></stop></linearGradient><radialGradient id="g1" gradientUnits="userSpaceOnUse" cx="637.936" cy="653.019" r="316.645"><stop offset="0" stop-color="#4A050D"></stop><stop offset="0.35" stop-color="#8C0A1A"></stop><stop offset="0.7" stop-color="#C4122A"></stop><stop offset="0.9" stop-color="#A80E22"></stop><stop offset="1" stop-color="#7A0A17"></stop></radialGradient><radialGradient id="g2" gradientUnits="userSpaceOnUse" cx="637.936" cy="653.019" r="316.645"><stop offset="0" stop-color="#4A050D"></stop><stop offset="0.35" stop-color="#8C0A1A"></stop><stop offset="0.7" stop-color="#C4122A"></stop><stop offset="0.9" stop-color="#A80E22"></stop><stop offset="1" stop-color="#7A0A17"></stop></radialGradient><radialGradient id="g3" gradientUnits="userSpaceOnUse" cx="637.936" cy="653.019" r="316.645"><stop offset="0" stop-color="#4A050D"></stop><stop offset="0.35" stop-color="#8C0A1A"></stop><stop offset="0.7" stop-color="#C4122A"></stop><stop offset="0.9" stop-color="#A80E22"></stop><stop offset="1" stop-color="#7A0A17"></stop></radialGradient><linearGradient id="g4" gradientUnits="userSpaceOnUse" x1="149.775" y1="513.105" x2="353.945" y2="838.355"><stop offset="0" stop-color="#5E0811"></stop><stop offset="0.35" stop-color="#A00C20"></stop><stop offset="0.55" stop-color="#D0182C"></stop><stop offset="0.8" stop-color="#8E0B1C"></stop><stop offset="1" stop-color="#5A0710"></stop></linearGradient><radialGradient id="g5" gradientUnits="userSpaceOnUse" cx="637.936" cy="653.019" r="316.645"><stop offset="0" stop-color="#4A050D"></stop><stop offset="0.35" stop-color="#8C0A1A"></stop><stop offset="0.7" stop-color="#C4122A"></stop><stop offset="0.9" stop-color="#A80E22"></stop><stop offset="1" stop-color="#7A0A17"></stop></radialGradient><radialGradient id="g6" gradientUnits="userSpaceOnUse" cx="637.936" cy="653.019" r="316.645"><stop offset="0" stop-color="#4A050D"></stop><stop offset="0.35" stop-color="#8C0A1A"></stop><stop offset="0.7" stop-color="#C4122A"></stop><stop offset="0.9" stop-color="#A80E22"></stop><stop offset="1" stop-color="#7A0A17"></stop></radialGradient><radialGradient id="g7" gradientUnits="userSpaceOnUse" cx="637.936" cy="653.019" r="316.645"><stop offset="0" stop-color="#4A050D"></stop><stop offset="0.35" stop-color="#8C0A1A"></stop><stop offset="0.7" stop-color="#C4122A"></stop><stop offset="0.9" stop-color="#A80E22"></stop><stop offset="1" stop-color="#7A0A17"></stop></radialGradient><linearGradient id="g8" gradientUnits="userSpaceOnUse" x1="201.355" y1="824.885" x2="703.605" y2="1048.425"><stop offset="0" stop-color="#5E0811"></stop><stop offset="0.35" stop-color="#A00C20"></stop><stop offset="0.55" stop-color="#D0182C"></stop><stop offset="0.8" stop-color="#8E0B1C"></stop><stop offset="1" stop-color="#5A0710"></stop></linearGradient><linearGradient id="g9" gradientUnits="userSpaceOnUse" x1="719.125" y1="173.255" x2="764.975" y2="223.655"><stop offset="0" stop-color="#8A5E1E"></stop><stop offset="0.3" stop-color="#D9A94F"></stop><stop offset="0.5" stop-color="#B07E2E"></stop><stop offset="0.72" stop-color="#EBC677"></stop><stop offset="1" stop-color="#946522"></stop></linearGradient><linearGradient id="g10" gradientUnits="userSpaceOnUse" x1="259.575" y1="203.195" x2="637.785" y2="768.635"><stop offset="0" stop-color="#8A5E1E"></stop><stop offset="0.3" stop-color="#D9A94F"></stop><stop offset="0.5" stop-color="#B07E2E"></stop><stop offset="0.72" stop-color="#EBC677"></stop><stop offset="1" stop-color="#946522"></stop></linearGradient><linearGradient id="g11" gradientUnits="userSpaceOnUse" x1="648.335" y1="210.225" x2="696.545" y2="256.815"><stop offset="0" stop-color="#8A5E1E"></stop><stop offset="0.3" stop-color="#D9A94F"></stop><stop offset="0.5" stop-color="#B07E2E"></stop><stop offset="0.72" stop-color="#EBC677"></stop><stop offset="1" stop-color="#946522"></stop></linearGradient><linearGradient id="g12" gradientUnits="userSpaceOnUse" x1="578.625" y1="248.765" x2="636.815" y2="303.275"><stop offset="0" stop-color="#8A5E1E"></stop><stop offset="0.3" stop-color="#D9A94F"></stop><stop offset="0.5" stop-color="#B07E2E"></stop><stop offset="0.72" stop-color="#EBC677"></stop><stop offset="1" stop-color="#946522"></stop></linearGradient><linearGradient id="g13" gradientUnits="userSpaceOnUse" x1="807.495" y1="501.595" x2="925.145" y2="420.985"><stop offset="0" stop-color="#A00C20"></stop><stop offset="0.1" stop-color="#B8551F"></stop><stop offset="0.3" stop-color="#D9A94F"></stop><stop offset="1" stop-color="#D9A94F"></stop></linearGradient><linearGradient id="g14" gradientUnits="userSpaceOnUse" x1="763.315" y1="525.835" x2="797.195" y2="451.625"><stop offset="0" stop-color="#A00C20"></stop><stop offset="0.1" stop-color="#B8551F"></stop><stop offset="0.3" stop-color="#D9A94F"></stop><stop offset="1" stop-color="#D9A94F"></stop></linearGradient><linearGradient id="g15" gradientUnits="userSpaceOnUse" x1="464.995" y1="676.555" x2="1029.345" y2="1034.835"><stop offset="0" stop-color="#8A5E1E"></stop><stop offset="0.3" stop-color="#D9A94F"></stop><stop offset="0.5" stop-color="#B07E2E"></stop><stop offset="0.72" stop-color="#EBC677"></stop><stop offset="1" stop-color="#946522"></stop></linearGradient><linearGradient id="g16" gradientUnits="userSpaceOnUse" x1="172.795" y1="759.925" x2="430.905" y2="922.825"><stop offset="0" stop-color="#8A5E1E"></stop><stop offset="0.3" stop-color="#D9A94F"></stop><stop offset="0.5" stop-color="#B07E2E"></stop><stop offset="0.72" stop-color="#EBC677"></stop><stop offset="1" stop-color="#946522"></stop></linearGradient><linearGradient id="g17" gradientUnits="userSpaceOnUse" x1="925.155" y1="815.255" x2="949.425" y2="841.805"><stop offset="0" stop-color="#8A5E1E"></stop><stop offset="0.3" stop-color="#D9A94F"></stop><stop offset="0.5" stop-color="#B07E2E"></stop><stop offset="0.72" stop-color="#EBC677"></stop><stop offset="1" stop-color="#946522"></stop></linearGradient><linearGradient id="g18" gradientUnits="userSpaceOnUse" x1="894.375" y1="842.485" x2="928.375" y2="877.095"><stop offset="0" stop-color="#8A5E1E"></stop><stop offset="0.3" stop-color="#D9A94F"></stop><stop offset="0.5" stop-color="#B07E2E"></stop><stop offset="0.72" stop-color="#EBC677"></stop><stop offset="1" stop-color="#946522"></stop></linearGradient><linearGradient id="g19" gradientUnits="userSpaceOnUse" x1="872.315" y1="873.985" x2="898.775" y2="901.595"><stop offset="0" stop-color="#8A5E1E"></stop><stop offset="0.3" stop-color="#D9A94F"></stop><stop offset="0.5" stop-color="#B07E2E"></stop><stop offset="0.72" stop-color="#EBC677"></stop><stop offset="1" stop-color="#946522"></stop></linearGradient><linearGradient id="g20" gradientUnits="userSpaceOnUse" x1="700.515" y1="1036.235" x2="734.705" y2="1044.425"><stop offset="0" stop-color="#8A5E1E"></stop><stop offset="0.3" stop-color="#D9A94F"></stop><stop offset="0.5" stop-color="#B07E2E"></stop><stop offset="0.72" stop-color="#EBC677"></stop><stop offset="1" stop-color="#946522"></stop></linearGradient></defs>
<path fill="url(#g0)" fill-rule="evenodd" d="M766.14 150.68C763.54 150.99 754.87 151.81 746.88 152.51C725.82 154.34 714.86 155.48 708.06 156.56C704.76 157.08 699.83 157.8 697.09 158.16C694.38 158.51 691.95 158.92 691.71 159.07C691.49 159.21 688.89 159.65 685.95 160.03C683 160.41 678.61 161.15 676.18 161.66C673.75 162.18 668.07 163.31 663.55 164.17C659.04 165.04 653.78 166.15 651.87 166.65C649.95 167.15 645.69 168.18 642.4 168.94C639.1 169.7 634.84 170.75 632.92 171.28C631.02 171.8 628.47 172.44 627.25 172.69C615.73 175.09 573.79 189.05 558.12 195.71C523.12 210.58 496.98 223.96 472.68 239.44C412.75 277.64 368.48 318.61 338.1 363.97C334.03 370.04 330.07 375.59 329.29 376.29C327.52 377.85 322.95 384.88 320.41 389.88C316.24 398.16 315.94 391.12 320.05 381.51C320.61 380.22 321.05 377.77 321.05 376.05C321.05 365.95 339.32 325.7 352.07 307.69C353.67 305.44 353.64 303.37 352 303.37C348.77 303.37 323.69 318.87 307.26 331.02C285.55 347.07 260.82 373.66 247.51 395.22C236.56 412.99 229.25 430.46 225.05 448.89C220.48 469.01 221.11 496.26 226.6 514.86C230.35 527.6 233.24 536.36 237.44 547.68C243.43 563.88 247.91 576.99 249.4 582.72C251.61 591.2 252.87 590.45 254.77 579.54C262.47 535.42 276.36 499.47 302.33 456.46C330.07 410.52 380.17 355.04 430.5 314.57C432.98 312.57 437.6 308.82 440.77 306.24C473.97 279.1 553.71 226.97 567.72 223.23C569.18 222.84 571.67 221.54 573.26 220.33C579.47 215.59 610.88 200.4 629.92 192.93C651.13 184.62 655.46 183.05 674.59 176.8C695.22 170.05 706.31 166.74 712.79 165.39C717.14 164.49 723.83 162.91 728.89 161.61C730.8 161.12 734.21 160.44 736.46 160.1C738.71 159.76 742.7 159.08 745.31 158.58C756.76 156.39 761.8 155.58 767.58 155C777.8 153.98 782.07 152.61 780.58 150.82C779.77 149.84 773.79 149.78 766.14 150.68Z"></path><path fill="url(#g1)" fill-rule="evenodd" d="M587.48 346.9C572.73 349.01 560.09 356.76 550.14 369.79C544.15 377.64 542.31 378.67 531.94 380.12C515.66 382.39 504.67 387.56 496.19 396.99C481.02 413.87 478.09 435.12 488.19 455.17C494.92 468.54 507.74 481.3 529.4 496.26C559.75 517.21 583.25 541.22 599.18 567.56C604.8 576.86 612.63 591.91 615.25 598.51C617.22 603.47 618.8 604.34 619.88 601.03C620.79 598.2 620.74 570.23 619.79 559.04C618.35 542.01 615.08 524.76 610.43 509.85C609.96 508.31 609.56 506.28 609.56 505.33C609.56 504.38 609.04 502.09 608.39 500.24C607.73 498.38 606.54 494.88 605.75 492.45C604.94 490.02 603.19 485.63 601.86 482.71C597.1 472.29 601.59 474.79 607.21 485.67C611.59 494.17 615.79 501.71 616.76 502.8C621 507.64 631.59 537.42 635.42 555.26C638.13 567.95 640.17 585.73 639.44 590.26C639.16 592.03 639.31 592.58 640.21 592.92C641.86 593.54 643.29 591.42 645.28 585.4C646.21 582.54 647.66 578.58 648.47 576.6C651.2 570 657.54 546.85 660.69 531.9C661.39 528.61 662.51 523.92 663.19 521.49C663.86 519.05 664.75 512.81 665.15 507.64C665.55 502.45 666.14 497.53 666.46 496.7C667.33 494.39 668.58 495.37 668.77 498.49C668.86 500.03 669.37 507.25 669.91 514.53C670.99 529.04 670.38 551.29 668.62 562.21C668.14 565.16 667.55 569.28 667.32 571.36C666.88 575.24 665.08 582.78 662.56 591.31C659.81 600.64 661.47 600.2 671.55 588.95C675.47 584.55 681.72 577.67 685.43 573.64C702.34 555.21 726.66 521.81 736.96 502.86C739.93 497.39 746.62 482.41 748.88 476.17C752.67 465.68 753.18 462.79 753.16 451.73C753.13 436.54 750.89 430.43 741.87 420.83C738.96 417.73 737.62 415.74 737.11 413.76C735.28 406.64 734.44 404.41 732.22 400.64C729.2 395.49 721.66 387.8 715.95 384.04C702.47 375.18 692.36 372.87 673.88 374.42C656.39 375.89 651.59 374.43 640.52 364.36C633.62 358.08 621.66 351.16 614.92 349.56C613.54 349.23 610.84 348.53 608.92 348.02C604.67 346.87 592.23 346.21 587.48 346.9Z"></path><path fill="url(#g2)" fill-rule="evenodd" d="M427.97 478.22C425.48 478.5 423.15 478.91 422.8 479.13C422.46 479.34 420.69 479.79 418.9 480.14C417.1 480.48 412.61 482.22 408.91 484C400.36 488.12 392.3 495.74 388.33 503.5C383.88 512.15 383.62 512.38 373.6 515.84C353.34 522.84 341.49 538.62 340.22 560.27C339.76 568.04 339.5 568.67 334.29 574.52C328.73 580.77 325.24 585.6 322.04 591.5C309.71 614.32 314.85 642.43 334.12 657.58C338.62 661.12 339.84 663.09 340.67 668.16C342.67 680.51 352.51 689.38 368.86 693.59C385.61 697.9 404.27 693.02 425.04 678.89C428.61 676.47 439.55 670.27 445.76 667.17C478.36 650.88 522.29 645.17 558.65 652.51C563.87 653.56 569.42 654.99 570.98 655.68C573.54 656.82 573.92 656.84 574.79 655.96C575.67 655.08 575.35 654.58 571.41 650.86C556.17 636.5 532.12 620.06 512.98 610.93C508.29 608.7 503.42 606.05 502.17 605.06C498.56 602.22 487.17 597.46 474.47 593.47C462.04 589.58 461.15 589.17 462.35 587.97C463.33 586.98 478.39 590.52 497.88 596.33C500.16 597.01 503.28 597.56 504.81 597.56C517.04 597.62 564.21 619.59 580.41 632.78C584.6 636.2 586.84 635.85 584.86 632.08C583.25 629.01 574.55 616.08 569.56 609.34C566.65 605.39 563.9 601.48 563.46 600.66C561.81 597.59 556.22 590.77 550.96 585.42C543.6 577.92 544.61 577.05 553.41 583.34C557.04 585.92 562.53 589.68 565.6 591.7C575.86 598.42 590.18 611.7 596.29 620.16C600.41 625.84 601.88 624.19 599.37 616.71C585.93 576.74 555.86 537.92 516.46 509.73C495.14 494.47 472.1 483.21 455.85 480.11C453.77 479.71 450.92 479.14 449.54 478.85C445.61 478.01 432.98 477.64 427.97 478.22Z"></path><path fill="url(#g3)" fill-rule="evenodd" d="M804.32 502.06C800.58 504.76 791.46 510.11 788.24 511.52C786.67 512.2 783.83 514.16 781.92 515.88C780.01 517.59 777.31 519.77 775.93 520.71C774.54 521.66 772.02 523.42 770.33 524.64C768.58 525.9 766.51 526.85 765.52 526.85C764.3 526.85 762.25 528.09 758.8 530.91C756.06 533.14 750.65 537.47 746.76 540.54C726.02 556.88 713.36 567.67 698.82 581.4C689.96 589.77 681.18 597.98 679.31 599.66C671.56 606.61 642.41 639.09 630 654.59C621.76 664.89 616.55 676.03 616.53 683.45C616.49 693.78 623.75 703.08 634.05 705.91C641.97 708.08 653.59 704.52 659.5 698.12C662.39 694.99 666.69 686.39 667.33 682.47C670.67 661.99 695.44 617.64 719.47 589.1C728.78 578.05 744.92 560.91 751.74 554.8C775.14 533.89 796.33 518.08 815.16 507.53C821.33 504.05 820.76 501.92 813.49 501.42C811.22 501.28 808.81 500.95 808.11 500.71C807.21 500.4 806.08 500.8 804.32 502.06Z"></path><path fill="url(#g4)" fill-rule="evenodd" d="M191.16 514.67C189.05 516.5 184.27 524.13 180.85 531.15C156.27 581.6 149.78 637.06 163.4 680.26C170.31 702.17 178.68 719.76 190.3 736.77C208.15 762.88 229.28 779.92 260.77 793.58C265.29 795.54 270.83 797.94 273.08 798.92C275.33 799.89 282.58 802.76 289.17 805.28C309.2 812.94 330.82 823.64 343.65 832.26C346.62 834.25 349.78 836.38 350.67 836.98C352.7 838.34 353.2 838.36 353.69 837.09C353.95 836.4 352.58 834.55 349.35 831.25C346.76 828.59 342.85 824.28 340.66 821.68C338.47 819.07 332.61 812.61 327.64 807.32C309.5 788.01 289.98 762.38 274.06 736.96C261.73 717.27 257.15 711.6 237.44 691.63C217.45 671.37 212.26 665.18 205.39 653.36C201.59 646.82 197.96 638.01 197.96 635.33C197.96 633.98 197.39 631.75 196.7 630.39C196 629.03 195.43 627.23 195.43 626.39C195.43 625.55 194.89 623.62 194.22 622.1C192.69 618.63 192.25 613.03 193.5 613.03C193.98 613.03 194.86 614.5 195.48 616.32C197.25 621.53 200.99 628.15 204.25 631.88C205.9 633.76 207.91 636.26 208.73 637.43C218.68 651.67 250.3 683.4 252.62 681.48C253.79 680.51 253.75 679.6 252.23 673.28C251.53 670.35 250.4 665.68 249.73 662.9C248.58 658.1 247.45 651.81 245.6 639.86C241.18 611.36 234.85 598.34 215.66 578.29C195.98 557.75 191.19 544.22 193.66 516.17C193.89 513.65 192.98 513.11 191.16 514.67Z"></path><path fill="url(#g5)" fill-rule="evenodd" d="M867.46 531.25C865.72 531.54 860.33 532.79 855.46 534.04C850.62 535.29 845.97 536.31 845.16 536.31C839.74 536.31 811.04 546.59 802.67 551.52C800.81 552.62 798.63 553.77 797.82 554.08C795.29 555.04 779.44 565.24 773.13 569.98C746.41 590.01 724.62 614.4 709.71 640.94C705.42 648.58 706.2 650.34 711.81 645.66C725.01 634.63 762.75 616.28 775.61 614.64C780.96 613.95 786.45 612.85 790.76 611.6C792.67 611.04 795.8 610.38 797.71 610.14C799.62 609.9 803.39 609.21 806.08 608.62C814.01 606.87 815.71 608.62 808.28 610.88C793.58 615.34 784.34 618.99 779.8 622.12C778.36 623.11 773.76 625.63 769.58 627.73C753.53 635.77 725.89 654.27 722.96 658.94C721.5 661.28 723.45 661.52 727.83 659.52C732.71 657.31 746.74 653.18 755.71 651.31C769.41 648.45 799.12 646.5 802.46 648.23C803.56 648.8 807.9 649.52 812.86 649.96C817.54 650.39 822.64 651.12 824.18 651.61C825.71 652.09 827.83 652.49 828.91 652.51C832.63 652.55 842.21 655.26 842.21 656.27C842.21 657.04 841.51 657.16 838.43 656.9C831.06 656.29 808.15 656.6 804.65 657.36C802.74 657.78 798.05 658.43 794.22 658.82C778.55 660.41 751.67 667.26 741.99 672.14C740 673.14 736.81 674.55 734.92 675.26C726.89 678.26 727.07 680.54 735.38 681.07C745.79 681.74 751.89 682.8 768.97 686.91C775.46 688.47 789.84 693.7 799.59 698.05C822.25 708.14 836.68 718.7 864.55 745.55C881.65 762.02 889.87 766.09 906.08 766.11C921.09 766.13 929.9 761.7 938.68 749.71C939.9 748.05 942.97 745.39 946.09 743.31C954.27 737.87 957.86 733.11 961.04 723.51C963.33 716.59 963.46 703.59 961.33 695.59C958.91 686.48 959.46 683.73 965.93 673.3C973.09 661.7 974.79 655.99 974.79 643.33C974.78 623.75 969 613.47 948.58 596.74C943.39 592.47 941.65 589.92 941.64 586.58C941.63 585.15 940.95 581.86 940.12 579.25C935.94 566.06 930.62 559.43 919.89 554.04C915.15 551.67 914.09 550.84 912.68 548.39C906.58 537.85 894.17 531.64 877.88 531C873.89 530.84 869.2 530.95 867.46 531.25Z"></path><path fill="url(#g6)" fill-rule="evenodd" d="M507.29 670.13C504.69 670.41 501.42 670.93 500.04 671.29C498.65 671.65 495.8 672.13 493.73 672.37C479.58 673.95 456.73 682.21 438.79 692.22C419.91 702.77 401.21 716.27 391.42 726.42C378.12 740.22 371.67 753.84 371.14 769.28C370.62 784.21 373.96 793.08 384.92 805.89C391.83 813.95 392.34 815.12 393.04 824.39C394.73 846.89 406.99 862.26 428.54 868.93C436.34 871.34 437.78 872.4 440.02 877.33C447.42 893.68 449.09 896.47 455.22 903.05C469.17 918.02 492.17 926.48 511.54 923.76C521.96 922.3 530.51 919.23 537.92 914.3C545.56 909.2 547.1 908.75 555.28 909.18C583.26 910.65 607.74 888.96 617.51 854.06C620.09 844.84 620.25 817.73 617.79 803.91C614.78 786.94 616.17 749.41 620.35 735.2C621.4 731.61 621.43 731 620.62 730.18C619.8 729.37 619.35 729.64 616.79 732.38C608.78 741 595.4 759.25 591.6 766.75C590.98 767.97 589.14 770.95 587.5 773.38C585.86 775.81 582.91 781.21 580.94 785.38C575.42 797.16 574.6 798.63 573.6 798.63C572.05 798.63 572.17 796.99 574.23 789.74C575.3 785.95 576.43 781.53 576.74 779.91C577.04 778.3 577.73 776.11 578.28 775.05C578.81 773.99 579.27 772.32 579.27 771.33C579.27 763.8 593.48 731.85 601.48 721.37C602.73 719.73 602.98 717.8 602.02 717.21C601.31 716.77 588.38 723.08 581.25 727.33C570.67 733.64 556.93 744.93 541.71 759.84C535.8 765.63 530.35 770.68 529.59 771.08C527.97 771.93 514.47 787.66 508.79 795.31C503.5 802.43 501.67 804.32 500.89 803.52C499.86 802.49 502.09 798.66 515.3 778.73C519.18 772.87 522.91 766.86 523.58 765.37C524.67 762.9 536.14 748.09 544.18 738.71C556.19 724.73 568.29 714.02 582.51 704.79C586.68 702.08 587.15 701.5 585.9 700.47C584.78 699.53 573.16 700.1 566.33 701.43C563.9 701.9 560.49 702.46 558.75 702.67C554.78 703.15 547.17 705.12 539.8 707.56C536.68 708.6 532.85 709.67 531.29 709.93C522.96 711.35 509.67 717.86 492.97 728.72C486.66 732.81 486.15 733.05 485.54 732.08C485.21 731.53 491.89 726.02 495.73 723.68C496.71 723.09 501.21 720.01 505.72 716.85C526.67 702.19 534.68 697.43 546 692.94C556.31 688.84 568.58 685.31 574.05 684.84C581.92 684.18 580.9 681.69 571.47 678.64C548.62 671.24 525.42 668.17 507.29 670.13Z"></path><path fill="url(#g7)" fill-rule="evenodd" d="M711.33 699.83C708.45 701.06 710.02 702.38 717.07 704.65C729.93 708.81 747.7 718.79 757.08 727.13C759.53 729.31 765.05 734.12 769.36 737.82C779.27 746.36 789.47 756.74 788.33 757.13C787.88 757.29 786.46 756.53 785.19 755.45C782.87 753.48 772.56 745.62 768.97 743.11C765.94 740.97 755.06 734.56 754.46 734.56C754.18 734.56 749.21 732.31 743.46 729.56C737.71 726.81 731.58 724.07 729.83 723.48C728.09 722.88 724.27 721.56 721.32 720.54C718.37 719.53 713.68 718.26 710.9 717.72C694.33 714.52 693.88 714.45 693 715.3C691.88 716.36 693.22 717.66 698.54 720.63C708.08 725.97 722.66 739.28 734.95 753.9C746.38 767.49 748.56 770.41 751.36 775.9C754.22 781.5 757.52 786.98 763.08 795.39C765.11 798.46 766.77 801.37 766.77 801.85C766.77 802.33 768.46 806.07 770.54 810.15C776.94 822.76 776.26 825.2 769.58 813.54C767.67 810.2 764.77 805.62 763.13 803.35C761.49 801.08 758.71 797.24 756.99 794.82C753.04 789.31 744.62 779.38 743.9 779.38C743.61 779.38 738.17 774.34 731.82 768.17C714.75 751.6 698.89 740.85 677.49 731.35C668.57 727.39 668.34 728.02 675.08 738.27C681.83 748.54 691.26 767.46 693.21 774.64C694.59 779.75 699.79 795.23 701.65 799.78C702.05 800.76 702.38 802.41 702.38 803.46C702.38 806.95 700.5 805.28 698.36 799.9C692.76 785.79 672.34 757.08 656.04 740.37C647.82 731.96 646.12 730.88 644.89 733.29C643.08 736.87 641.62 796.4 643.01 809.91C643.4 813.68 643.97 820.47 644.3 824.98C645.82 846.25 652.14 868.65 660.68 883.12C674.21 906.02 695.84 920.16 717.36 920.16C724.54 920.16 724.96 920.3 732.05 924.9C745.24 933.47 754.12 937.16 764.59 938.42C781.79 940.47 793.06 938.08 807.49 929.3C808.93 928.42 811.01 927.75 812.32 927.75C817.31 927.73 827.26 923.71 834.32 918.87C841.47 913.97 847.97 905.48 851.44 896.53C853.32 891.65 855.79 880.28 855.79 876.46C855.79 873.5 857.49 870.96 864.03 864.21C882 845.67 887.36 823.77 879.67 800.21C872.29 777.56 841.92 743.63 813.07 725.79C792.92 713.33 762.67 702.61 741.68 700.47C732.74 699.56 712.92 699.14 711.33 699.83Z"></path><path fill="url(#g8)" fill-rule="evenodd" d="M202.04 827.52C201.36 830.23 216.89 858.56 227.56 874.08C238.16 889.49 252.4 907.05 263.57 918.48C307.72 963.67 367.53 999.31 437.86 1022.32C474.78 1034.41 527.05 1043.85 571.05 1046.39C603.25 1048.25 609.54 1048.43 632.29 1048.15C647.52 1047.97 660.74 1047.47 667.65 1046.82C673.72 1046.26 683.65 1045.38 689.7 1044.87C701.25 1043.9 703.61 1043.18 701.37 1041.32C700.51 1040.61 695.97 1040.34 679.08 1040.02C599.89 1038.5 540.29 1021.2 480.51 982.38C469.44 975.2 448.84 959.47 436.28 948.61C410.03 925.93 383.27 907.76 362.73 898.67C342.86 889.88 330.42 885.53 310.33 880.38C307.38 879.63 302.83 878.46 300.23 877.78C297.63 877.11 293.78 876.11 291.71 875.57C266.89 869.15 248.8 861.42 230.47 849.42C222.95 844.5 220.36 842.33 213.06 834.87C204.45 826.06 202.7 824.89 202.04 827.52Z"></path><path fill="url(#g9)" fill-rule="evenodd" d="M737.72 177.45C723.75 181.84 719.13 200.9 729.53 211.3C741.89 223.66 762.99 215.7 764.08 198.26C764.97 184.19 751.12 173.26 737.72 177.45Z"></path><path fill="url(#g10)" fill-rule="evenodd" d="M628.83 205.59C626.4 206.65 622.42 208.24 619.99 209.11C617.55 209.99 607.39 214.65 597.39 219.47C587.38 224.3 578.68 228.24 578.06 228.24C577.43 228.24 575.97 228.94 574.79 229.79C571.91 231.87 563.22 237.1 552.33 243.31C547.4 246.12 540.16 250.45 536.23 252.93C532.29 255.42 526.26 259.16 522.79 261.25C519.35 263.33 514.24 266.62 511.43 268.54C500.66 275.96 484.62 287.41 478.58 292.02C463.41 303.59 458.61 307.35 452.25 312.61C448.54 315.69 441.72 321.33 437.1 325.14C376.97 374.79 326.89 435.28 299.63 491.17C288.04 514.92 279.14 537.04 275.08 552.11C268.49 576.66 267.54 581.37 265.76 598.18C259.58 656.47 272.16 706.99 305.42 757.6C311.45 766.75 313.12 768.64 314.24 767.52C314.77 766.98 314.24 765.09 312.08 759.99C308.62 751.79 300.77 728.99 298.54 720.67C281.49 656.74 289.84 601.46 328.2 524.51C337.01 506.84 338.78 503.73 351.57 483.29C361.42 467.56 363.8 464.01 375.27 447.93C393.55 422.33 403.78 409.42 431.92 376.5C462.79 340.37 513.75 291.12 543.43 268.71C545.27 267.33 548.6 264.77 550.86 263C572.87 245.82 596.31 230.27 627.25 212.35C636.33 207.09 637.79 205.86 636.63 204.46C635.58 203.2 633.69 203.47 628.83 205.59Z"></path><path fill="url(#g11)" fill-rule="evenodd" d="M662.17 212.74C657.63 214.85 653.37 218.97 651.12 223.43C648.76 228.11 648.33 237.08 650.29 240.9C655.92 251.86 666.05 256.82 676.54 253.76C690.25 249.75 696.55 236.36 690.63 223.82C687.93 218.1 685.95 216.01 680.79 213.43C674.95 210.51 667.55 210.23 662.17 212.74Z"></path><path fill="url(#g12)" fill-rule="evenodd" d="M600.91 251C591.79 252.8 585.22 258.81 582.4 267.92C578.63 280.15 585.89 293.34 598.49 297.13C618.94 303.27 636.81 283.4 627.92 264.38C623.17 254.17 612.25 248.77 600.91 251Z"></path><path fill="url(#g13)" fill-rule="evenodd" d="M887.97 404.78C875.8 410.91 871.93 423.58 878.82 434.76C880.04 436.73 881.04 439.05 881.04 439.92C881.04 445.74 851.32 475.15 838.11 482.41C836.55 483.27 834.34 484.54 833.21 485.27C830.38 487.05 829.88 485.58 832.06 481.86C832.96 480.33 833.69 478.54 833.69 477.91C833.69 477.27 834.72 473.79 835.99 470.21C838.32 463.6 840.54 460.56 843.05 460.55C844.89 460.54 850.34 457.02 853.03 454.11C860.01 446.54 859.37 437.27 851.39 430.09C837.17 417.3 815.31 431.41 821.44 449.41C822.06 451.21 823.9 453.97 826.18 456.48C828.83 459.4 829.9 461.09 829.89 462.3C829.87 467.04 819.42 485.43 811.95 493.91C806.99 499.53 807.5 501.6 813.83 501.6C815.71 501.6 818.4 502.05 819.81 502.62C822.36 503.65 822.36 503.65 828.81 500.48C832.36 498.73 836.26 497.01 837.47 496.64C842.05 495.24 848.59 493.5 850.74 493.1C851.95 492.87 854.65 492.29 856.72 491.83C858.82 491.35 863.43 490.77 866.99 490.53C874.25 490.04 874.86 490.38 879.56 497.27C882.82 502.06 888.21 504.36 895.38 504C903.57 503.59 908.67 500.25 912.07 493.08C919.4 477.62 902.27 461.05 886.28 468.13C881.3 470.33 879.34 472.25 876.95 477.29C874.27 482.95 874.21 482.98 864.29 482.36C856.82 481.89 855.57 481.28 858.19 479.38C861.2 477.21 879.53 457.47 883.24 452.42C888.95 444.63 889.71 444.09 894.29 444.56C913.61 446.59 925.15 420.99 910.56 408.5C904.05 402.92 894.71 401.4 887.97 404.78Z"></path><path fill="url(#g14)" fill-rule="evenodd" d="M784.58 456.05C772.71 460.22 769.46 472.72 777.68 482.51C781.24 486.75 781.7 488.93 780.01 493.58C777.53 500.39 773.41 508.65 768.5 516.67C763.72 524.5 763.32 525.84 765.54 526.54C766.94 526.99 768.71 526.15 772.14 523.4C773.53 522.28 775.86 520.62 777.32 519.7C779.42 518.38 780.12 517.47 780.67 515.34C781.06 513.86 782.07 510.52 782.93 507.91C783.78 505.3 785.47 500.14 786.69 496.42C789.03 489.23 790.67 487.08 793.8 487.08C797.83 487.08 804.31 481.99 806.29 477.25C811.26 465.35 797.2 451.63 784.58 456.05Z"></path><path fill="url(#g15)" fill-rule="evenodd" d="M1027.02 677.25C1026.63 677.71 1026.14 679.64 1025.92 681.54C1021.26 721.23 999.8 779.86 975.97 817.95C944.71 867.95 907.49 905.05 858.81 934.74C839.63 946.45 831.93 950.36 809.7 959.75C797.08 965.07 777.28 971.8 768.66 973.7C767.09 974.04 762.41 975.17 758.25 976.2C747.7 978.81 739.19 980.69 735.83 981.14C734.27 981.36 731.43 981.91 729.52 982.38C727.61 982.85 723.21 983.53 719.74 983.89C716.27 984.25 711.86 984.82 709.95 985.15C696.52 987.47 642.84 987.28 623.46 984.84C604.86 982.5 585.13 979.21 578.31 977.34C576.59 976.86 574.03 976.28 572.64 976.05C571.25 975.82 568.13 975.07 565.69 974.39C563.27 973.7 559.15 972.55 556.54 971.82C541.62 967.63 529.77 963.5 513.18 956.72C496.67 949.95 484.67 944.31 474.02 938.3C466.71 934.17 465 933.66 465 935.6C465 936.74 481.11 951.65 490.56 959.28C527.26 988.87 571.59 1010.55 615.56 1020.44C679.67 1034.84 747.55 1030.29 807.96 1007.55C839.06 995.84 879.62 972.74 900.37 954.91C944.36 917.13 969.02 886.66 991.34 842.51C1003.42 818.63 1009.74 802.54 1016.76 777.8C1017.55 775.02 1018.45 771.9 1018.78 770.86C1023.58 755.37 1027.87 724.26 1028.76 698.63C1029.35 681.34 1029.33 678.03 1028.59 677.29C1027.86 676.56 1027.59 676.56 1027.02 677.25Z"></path><path fill="url(#g16)" fill-rule="evenodd" d="M173.38 760.7C172.82 761.37 172.8 761.96 173.29 762.89C173.67 763.58 174.84 766.51 175.9 769.4C180.62 782.24 190.75 798.88 200.87 810.4C201.97 811.67 203.89 814.28 205.12 816.2C207.75 820.32 217.29 828.73 222.46 831.49C224.43 832.55 227.76 834.56 229.84 835.97C248.7 848.71 267.28 855.79 302.44 863.65C329.32 869.66 355.57 878.77 376.42 889.34C396.79 899.66 411.55 908.53 422.26 916.86C428.67 921.85 430.91 922.83 430.91 920.63C430.91 918.4 396.44 883.56 385.77 874.99C347.33 844.15 322.09 831.43 269.93 816.6C232.63 806 204.04 790.08 181.79 767.53C175.38 761.04 174.02 759.93 173.38 760.7Z"></path><path fill="url(#g17)" fill-rule="evenodd" d="M931.38 818.23C925.22 822.41 925.16 829.52 931.21 834.84C939.16 841.81 949.43 830.75 943.57 821.52C940.4 816.51 935.75 815.26 931.38 818.23Z"></path><path fill="url(#g18)" fill-rule="evenodd" d="M905.19 845.73C894.96 850.8 894.38 863.65 904.09 870.19C914.37 877.1 928.38 865.27 923.93 853.44C921.29 846.42 911.72 842.49 905.19 845.73Z"></path><path fill="url(#g19)" fill-rule="evenodd" d="M880.08 878.68C872.66 882.88 872.32 894.44 879.51 898.53C884.9 901.6 891.03 898.92 894.54 891.94C898.78 883.53 888.39 873.99 880.08 878.68Z"></path><path fill="url(#g20)" fill-rule="evenodd" d="M725.42 1036.96C707.91 1038.08 700.52 1039.27 701.47 1040.82C703.11 1043.46 708.84 1044.43 714.3 1042.98C716.17 1042.48 719.29 1041.9 721.24 1041.69C725.56 1041.22 732.7 1039.5 733.79 1038.66C734.71 1037.96 733.67 1036.24 732.45 1036.44C732.05 1036.5 728.89 1036.73 725.42 1036.96Z"></path>
</svg>